<svg width="82" height="82" viewBox="0 0 82 82" fill="none" xmlns="http://www.w3.org/2000/svg">
<rect x="1" y="1" width="80" height="80" rx="40" fill="white"/>
<rect x="1" y="1" width="80" height="80" rx="40" stroke="white" stroke-width="2"/>
<path d="M31.1846 59C30.9656 59 30.749 58.9547 30.549 58.8672C30.3489 58.7797 30.1698 58.6518 30.0234 58.4918L21.4045 49.0838C21.2665 48.9341 21.1599 48.7592 21.0908 48.5689C21.0217 48.3787 20.9916 48.1769 21.002 47.9752C21.0125 47.7735 21.0634 47.5758 21.1518 47.3935C21.2402 47.2111 21.3644 47.0477 21.5172 46.9126C21.67 46.7775 21.8485 46.6733 22.0423 46.6061C22.2362 46.5389 22.4417 46.5099 22.647 46.5209C22.8523 46.5318 23.0534 46.5825 23.2387 46.6699C23.424 46.7574 23.5899 46.8799 23.727 47.0305L31.146 55.1286L58.2406 23.5486C58.3727 23.3939 58.5345 23.2663 58.7168 23.1732C58.8991 23.08 59.0983 23.0231 59.3031 23.0057C59.5078 22.9883 59.714 23.0108 59.9099 23.0718C60.1058 23.1328 60.2875 23.2312 60.4446 23.3613C60.6017 23.4914 60.7312 23.6507 60.8256 23.83C60.9199 24.0093 60.9773 24.2052 60.9945 24.4064C61.0117 24.6075 60.9883 24.8101 60.9257 25.0024C60.8631 25.1946 60.7625 25.3729 60.6297 25.5269L32.3791 58.4544C32.2352 58.6221 32.0565 58.7576 31.8548 58.8517C31.6531 58.9457 31.4333 58.9962 31.21 58.9997L31.1846 59Z" fill="#024DC4"/>
</svg>
