<svg width="26" height="26" viewBox="0 0 26 26" fill="none" xmlns="http://www.w3.org/2000/svg">
<path d="M26 12.7431C26 12.6131 25.8945 12.5055 25.7645 12.4994C21.1003 12.3227 18.2614 11.7277 16.2754 9.74166C14.2854 7.75141 13.6926 4.91041 13.5158 0.235579C13.5117 0.105599 13.4041 0 13.2721 0H12.7279C12.5981 0 12.4904 0.105599 12.4842 0.235579C12.3076 4.90839 11.7146 7.75141 9.72458 9.74166C7.73664 11.7298 4.89994 12.3227 0.235543 12.4994C0.105543 12.5034 0 12.6111 0 12.7431V13.2874C0 13.4173 0.105543 13.5249 0.235543 13.531C4.89994 13.7077 7.73876 14.3027 9.72458 16.2887C11.7106 18.2749 12.3036 21.1078 12.4823 25.7643C12.4864 25.8943 12.594 26 12.7259 26H13.2721C13.4021 26 13.5098 25.8943 13.5158 25.7643C13.6945 21.1078 14.2875 18.2749 16.2735 16.2887C18.2614 14.3007 21.0981 13.7077 25.7625 13.531C25.8925 13.527 25.9981 13.4193 25.9981 13.2874L26 12.7431Z" fill="#024DC4"/>
</svg>
