<svg class="Z" width="60" height="60" viewBox="0 0 60 60" fill="none" xmlns="http://www.w3.org/2000/svg">
<rect x="27.9305" width="4.13793" height="12.4138" rx="2" fill="#7990B2"/>
<rect x="27.9305" y="47.5859" width="4.13793" height="12.4138" rx="2" fill="#024DC4"/>
<rect x="59.9995" y="27.9307" width="4.13793" height="12.4138" rx="2" transform="rotate(90 59.9995 27.9307)" fill="#024DC4"/>
<rect x="12.4133" y="27.9307" width="4.13793" height="12.4138" rx="2" transform="rotate(90 12.4133 27.9307)" fill="#024DC4"/>
<rect x="57.0132" y="43.21" width="4.13793" height="12.4138" rx="2" transform="rotate(120 57.0132 43.21)" fill="#024DC4"/>
<rect x="15.8036" y="19.417" width="4.13793" height="12.4138" rx="2" transform="rotate(120 15.8036 19.417)" fill="#024DC4"/>
<rect x="46.7896" y="54.9492" width="4.13793" height="12.4138" rx="2" transform="rotate(150 46.7896 54.9492)" fill="#024DC4"/>
<rect x="22.9965" y="13.7354" width="4.13793" height="12.4138" rx="2" transform="rotate(150 22.9965 13.7354)" fill="#024DC4"/>
<rect x="16.7896" y="57.0176" width="4.13793" height="12.4138" rx="2" transform="rotate(-150 16.7896 57.0176)" fill="#024DC4"/>
<rect x="40.5847" y="15.8037" width="4.13793" height="12.4138" rx="2" transform="rotate(-150 40.5847 15.8037)" fill="#7990B2"/>
<rect x="5.05066" y="46.7939" width="4.13793" height="12.4138" rx="2" transform="rotate(-120 5.05066 46.7939)" fill="#024DC4"/>
<rect x="46.2643" y="23.001" width="4.13793" height="12.4138" rx="2" transform="rotate(-120 46.2643 23.001)" fill="#7990B2"/>


</svg>
