<svg width="180" height="65" viewBox="0 0 180 65" fill="none" xmlns="http://www.w3.org/2000/svg">
<path d="M7.21153 30.4658V10.5205H0V5.53425H19.8317V10.5205H12.6202V30.4658H7.21153Z" fill="white"/>
<path d="M23.6121 20.137V5.53425H29.0208V20.137C29.0208 21.8941 29.5376 23.3187 30.5713 24.411C31.6049 25.4795 32.9511 26.0137 34.6097 26.0137C36.2684 26.0137 37.6145 25.4795 38.6482 24.411C39.6818 23.3187 40.1987 21.8941 40.1987 20.137V5.53425H45.6073V20.137C45.6073 23.3425 44.5857 25.9543 42.5424 27.9726C40.4991 29.9909 37.8549 31 34.6097 31C31.3645 31 28.7203 29.9909 26.677 27.9726C24.6338 25.9543 23.6121 23.3425 23.6121 20.137Z" fill="white"/>
<path d="M51.9272 30.4658V5.53425H63.1051C65.7974 5.53425 67.9369 6.30594 69.5234 7.84931C71.134 9.36895 71.9392 11.3872 71.9392 13.9041C71.9392 16.3498 71.2181 18.2849 69.7758 19.7096C69.1748 20.3507 68.4537 20.8493 67.6123 21.2055L72.8407 30.4658H66.8912L62.384 22.274H57.3359V30.4658H51.9272ZM57.3359 17.2877H62.9248C63.9345 17.2877 64.7518 16.979 65.3768 16.3616C66.0258 15.7205 66.3503 14.9014 66.3503 13.9041C66.3503 12.9068 66.0258 12.0995 65.3768 11.4822C64.7518 10.8411 63.9345 10.5205 62.9248 10.5205H57.3359V17.2877Z" fill="white"/>
<path d="M77.3507 30.4658V5.53425H82.7594V16.2192L92.4949 5.53425H98.9853L89.6103 15.863L99.7065 30.4658H93.3964L86.0046 19.7808L82.7594 23.1644V30.4658H77.3507Z" fill="white"/>
<path d="M108.204 12.337C106.641 13.8804 105.86 15.768 105.86 18C105.86 20.232 106.641 22.1315 108.204 23.6986C109.79 25.242 111.714 26.0137 113.973 26.0137C116.233 26.0137 118.144 25.242 119.706 23.6986C121.293 22.1315 122.086 20.232 122.086 18C122.086 15.768 121.293 13.8804 119.706 12.337C118.144 10.7699 116.233 9.9863 113.973 9.9863C111.714 9.9863 109.79 10.7699 108.204 12.337ZM104.202 27.189C101.581 24.6484 100.271 21.5854 100.271 18C100.271 14.4146 101.581 11.3516 104.202 8.81096C106.846 6.27032 110.103 5 113.973 5C117.843 5 121.089 6.27032 123.709 8.81096C126.353 11.3516 127.675 14.4146 127.675 18C127.675 21.5854 126.353 24.6484 123.709 27.189C121.089 29.7297 117.843 31 113.973 31C110.103 31 106.846 29.7297 104.202 27.189Z" fill="white"/>
<path d="M138.495 30.4658L129.12 5.53425H134.889L141.488 23.8767H141.632L148.231 5.53425H154L144.625 30.4658H138.495Z" fill="white"/>
<path fill-rule="evenodd" clip-rule="evenodd" d="M125.482 56.488C126.29 56.4881 126.972 56.7782 127.527 57.3568L127.722 57.5808C128.148 58.1204 128.359 58.775 128.359 59.5422C128.359 60.3094 128.148 60.964 127.722 61.5037L127.527 61.7277C126.972 62.3063 126.29 62.5963 125.482 62.5964C124.911 62.5964 124.403 62.4332 123.961 62.1065L123.819 61.9974C123.719 61.915 123.629 61.8248 123.547 61.7277V65H122.604V56.6078H123.547V57.3558C123.667 57.2143 123.805 57.0883 123.961 56.9779C124.403 56.6513 124.911 56.488 125.482 56.488ZM125.482 57.3685C125.04 57.3685 124.641 57.5287 124.285 57.8525L124.135 58.0015C123.742 58.4244 123.547 58.9373 123.547 59.5422C123.547 60.1472 123.742 60.66 124.135 61.0829L124.285 61.232C124.641 61.5558 125.04 61.716 125.482 61.716C126.021 61.7159 126.478 61.5129 126.854 61.1063L126.985 60.9495C127.273 60.5692 127.417 60.1009 127.417 59.5422C127.417 58.9835 127.273 58.5153 126.985 58.1349L126.854 57.9781C126.478 57.5716 126.021 57.3686 125.482 57.3685ZM124.574 57.573C124.492 57.6228 124.413 57.6813 124.335 57.7463C124.418 57.6777 124.502 57.6164 124.589 57.5642L124.574 57.573Z" fill="white"/>
<path fill-rule="evenodd" clip-rule="evenodd" d="M129.996 56.64L131.813 61.2096L133.633 56.64L133.646 56.6078H134.655L134.628 56.677L131.981 63.2859C131.739 63.8974 131.475 64.3387 131.186 64.6026L131.185 64.6017C130.903 64.8672 130.55 65 130.129 65C129.941 65 129.764 64.9798 129.6 64.9386C129.539 64.9294 129.469 64.9082 129.389 64.8763L129.358 64.8637V63.9716L129.428 64.0027C129.463 64.0181 129.495 64.0304 129.525 64.0397L129.608 64.0592L129.614 64.0602C129.746 64.0989 129.878 64.1186 130.009 64.1186C130.247 64.1186 130.45 64.0475 130.621 63.9053C130.793 63.7623 130.935 63.545 131.045 63.2499L131.339 62.4279L129 56.677L128.973 56.6078H129.983L129.996 56.64Z" fill="white"/>
<path d="M46.123 61.5952H49.2125V56.6078H50.1545V61.5952H51.0566V63.918H50.1145V62.4766H45.1809V56.6078H46.123V61.5952Z" fill="white"/>
<path fill-rule="evenodd" clip-rule="evenodd" d="M140.131 61.5952H141.033V63.918H140.091V62.4766H135.558V63.918H134.616V61.5952H135.065C135.246 61.402 135.408 61.148 135.547 60.8317L135.548 60.8307L135.668 60.5531C135.929 59.8928 136.06 59.1553 136.06 58.3404V56.6078H140.131V61.5952ZM137.002 58.3404C137.002 59.2516 136.841 60.0875 136.517 60.8473L136.516 60.8482C136.387 61.1348 136.243 61.3834 136.088 61.5952H139.189V57.4892H137.002V58.3404Z" fill="white"/>
<path fill-rule="evenodd" clip-rule="evenodd" d="M8.66774 56.488C9.47459 56.4881 10.1454 56.7657 10.6767 57.3207L10.8659 57.535C11.279 58.0528 11.4851 58.683 11.4851 59.4224C11.4851 59.4671 11.4719 59.5755 11.4481 59.7419V59.7448L11.4237 59.8646L11.4159 59.9045H11.3749L6.73681 59.8928C6.77891 60.3782 6.98385 60.8016 7.3551 61.1648C7.74703 61.5325 8.2031 61.7159 8.72723 61.716C9.20418 61.716 9.65482 61.5596 10.0799 61.2456L10.2261 61.1229C10.3624 61.0015 10.4712 60.8849 10.5528 60.7742L10.587 60.7275L11.1994 61.3401L11.175 61.3741C11.0191 61.5872 10.8106 61.7912 10.5509 61.9858L10.5499 61.9867C9.98068 62.3928 9.37232 62.5964 8.72723 62.5964C8.0202 62.5963 7.4001 62.3679 6.86846 61.9127L6.64611 61.7043C6.07536 61.1099 5.78987 60.3879 5.78987 59.5422C5.78988 58.6966 6.07545 57.9755 6.64611 57.3811L6.86456 57.1717C7.38636 56.7167 7.98815 56.488 8.66774 56.488ZM10.2583 61.1599C10.2122 61.2009 10.1632 61.2425 10.1111 61.2845L10.2583 61.1599C10.3043 61.1189 10.348 61.0781 10.388 61.0381L10.2583 61.1599ZM6.95331 60.7392C6.98561 60.7938 7.02066 60.8474 7.05863 60.8999L6.95331 60.7392C6.92105 60.6846 6.89214 60.6293 6.86554 60.5726L6.95331 60.7392ZM8.66774 57.3685C8.237 57.3685 7.85428 57.4998 7.51894 57.7629L7.37753 57.8846C7.02334 58.2159 6.8133 58.6114 6.74169 59.0718H10.5343C10.4635 58.5873 10.2598 58.1878 9.9209 57.872L9.91992 57.871C9.57665 57.5361 9.16016 57.3685 8.66774 57.3685ZM10.2983 58.2537C10.3294 58.3043 10.3586 58.3561 10.3851 58.4096L10.2983 58.2537C10.2672 58.2032 10.2336 58.1534 10.1979 58.1057L10.2983 58.2537ZM9.10367 57.3675C9.08 57.3621 9.05654 57.3554 9.03247 57.3509L9.01005 57.348C9.04166 57.3534 9.07274 57.3605 9.10367 57.3675Z" fill="white"/>
<path fill-rule="evenodd" clip-rule="evenodd" d="M37.19 62.4766H36.2479V57.4892H33.8206V58.3404C33.8206 59.1911 33.7767 59.903 33.688 60.4752C33.6073 61.0384 33.4815 61.4741 33.3086 61.7783C33.1376 62.079 32.944 62.295 32.7254 62.4211L32.7244 62.4221C32.5148 62.5393 32.2608 62.5964 31.9657 62.5964C31.8167 62.5964 31.6717 62.5755 31.5308 62.5341C31.4862 62.5246 31.4234 62.5038 31.3455 62.4727L31.3143 62.4601V61.492L31.3923 61.5436C31.4139 61.558 31.4349 61.57 31.4557 61.5787L31.5171 61.5962L31.5269 61.5981C31.6249 61.6358 31.7312 61.6556 31.8458 61.6556C32.0843 61.6556 32.2623 61.5867 32.387 61.455L32.388 61.454L32.4358 61.3965C32.4836 61.331 32.5308 61.2396 32.5752 61.12C32.634 60.9613 32.6874 60.757 32.7352 60.5064L32.7976 60.0857C32.8514 59.6244 32.8785 59.0428 32.8785 58.3404V56.6078H37.19V62.4766ZM31.6712 61.6907C31.6993 61.6957 31.7279 61.6989 31.757 61.7014C31.6987 61.6964 31.6426 61.6863 31.5883 61.6712L31.6712 61.6907ZM32.4231 61.4891L32.4767 61.4267C32.4835 61.4175 32.4886 61.4067 32.4953 61.3965C32.4715 61.4326 32.4482 61.4639 32.4231 61.4891Z" fill="white"/>
<path fill-rule="evenodd" clip-rule="evenodd" d="M61.8718 56.488C62.7035 56.488 63.411 56.7857 63.9899 57.3801C64.5772 57.9666 64.8706 58.6883 64.8706 59.5422C64.8706 60.2894 64.6452 60.9383 64.1957 61.4871L63.9899 61.716C63.4109 62.3024 62.7033 62.5964 61.8718 62.5964C61.0405 62.5963 60.3297 62.303 59.7429 61.717C59.1639 61.1225 58.8739 60.396 58.8739 59.5422C58.874 58.6885 59.1637 57.9667 59.7429 57.3801L59.9691 57.1708C60.5095 56.716 61.1444 56.4881 61.8718 56.488ZM61.8718 57.3685C61.3791 57.3685 60.9465 57.5299 60.5728 57.8535L60.4158 58.0025C60.0162 58.4172 59.816 58.9294 59.816 59.5422C59.816 60.1469 60.0167 60.659 60.4167 61.082C60.8248 61.5052 61.3085 61.7159 61.8718 61.716C62.4355 61.716 62.9161 61.5087 63.3161 61.0937L63.4594 60.931C63.7717 60.5405 63.9285 60.0783 63.9285 59.5422C63.9285 58.9297 63.7245 58.4172 63.317 58.0025C62.917 57.5795 62.4352 57.3685 61.8718 57.3685Z" fill="white"/>
<path fill-rule="evenodd" clip-rule="evenodd" d="M82.7502 56.488C83.5817 56.4882 84.2886 56.7858 84.8674 57.3801C85.4547 57.9666 85.748 58.6883 85.748 59.5422C85.748 60.2895 85.5227 60.9383 85.0732 61.4871L84.8674 61.716C84.2885 62.3023 83.5815 62.5963 82.7502 62.5964C81.9188 62.5964 81.2073 62.3031 80.6203 61.717C80.0414 61.1225 79.7514 60.396 79.7514 59.5422C79.7514 58.6885 80.0412 57.9667 80.6203 57.3801L80.8466 57.1708C81.3871 56.7159 82.0227 56.488 82.7502 56.488ZM82.7502 57.3685C82.2573 57.3685 81.8241 57.5297 81.4503 57.8535L81.2933 58.0025C80.8937 58.4172 80.6935 58.9294 80.6935 59.5422C80.6935 60.1469 80.8942 60.659 81.2942 61.082C81.7024 61.5053 82.1868 61.716 82.7502 61.716C83.3137 61.7159 83.7937 61.5086 84.1936 61.0937L84.3369 60.931C84.6493 60.5405 84.806 60.0783 84.806 59.5422C84.806 58.9297 84.602 58.4172 84.1945 58.0025C83.7946 57.5796 83.3134 57.3686 82.7502 57.3685ZM82.1592 56.5923C82.0697 56.6095 81.9821 56.6321 81.8959 56.6575C82.0732 56.6052 82.2574 56.5691 82.4489 56.5514L82.1592 56.5923Z" fill="white"/>
<path fill-rule="evenodd" clip-rule="evenodd" d="M94.5845 56.488C95.416 56.4881 96.1228 56.7858 96.7017 57.3801L96.9075 57.6061C97.3573 58.1489 97.5823 58.7949 97.5823 59.5422C97.5823 60.2893 97.3578 60.9384 96.9084 61.4871L96.7017 61.716C96.1227 62.3024 95.4159 62.5963 94.5845 62.5964C93.7532 62.5964 93.0425 62.3029 92.4556 61.717L92.4546 61.716C91.8757 61.1215 91.5857 60.3959 91.5857 59.5422C91.5857 58.6885 91.8755 57.9667 92.4546 57.3801L92.6809 57.1708C93.2214 56.7158 93.8569 56.488 94.5845 56.488ZM94.5845 57.3685C94.0915 57.3685 93.6584 57.5297 93.2845 57.8535L93.1285 58.0025C92.7289 58.4172 92.5287 58.9294 92.5287 59.5422C92.5287 60.1468 92.7285 60.659 93.1285 61.082L93.2845 61.231C93.6584 61.5548 94.0915 61.716 94.5845 61.716C95.1481 61.7159 95.6289 61.5087 96.0288 61.0937L96.1722 60.931C96.4843 60.5405 96.6403 60.0782 96.6403 59.5422C96.6403 58.9297 96.4363 58.4172 96.0288 58.0025C95.6288 57.5795 95.1478 57.3685 94.5845 57.3685ZM93.2523 57.8155C93.1999 57.8608 93.1493 57.91 93.0992 57.9616C93.2015 57.8563 93.3082 57.7635 93.4201 57.684L93.2523 57.8155ZM93.9935 56.5923C93.8986 56.6106 93.8057 56.6339 93.7146 56.6614L93.9935 56.5923C94.0882 56.574 94.1847 56.5605 94.2832 56.5514L93.9935 56.5923Z" fill="white"/>
<path fill-rule="evenodd" clip-rule="evenodd" d="M104.127 56.488C104.959 56.488 105.666 56.7856 106.245 57.3801C106.832 57.9666 107.126 58.6883 107.126 59.5422C107.126 60.2894 106.9 60.9383 106.451 61.4871L106.244 61.716C105.665 62.3024 104.959 62.5964 104.127 62.5964C103.296 62.5963 102.585 62.303 101.998 61.717L101.997 61.716C101.418 61.1216 101.129 60.3958 101.129 59.5422C101.129 58.6885 101.419 57.9667 101.998 57.3801L102.223 57.1708C102.764 56.7157 103.399 56.4881 104.127 56.488ZM104.127 57.3685C103.634 57.3685 103.202 57.5299 102.828 57.8535L102.671 58.0025C102.271 58.4172 102.071 58.9294 102.071 59.5422C102.071 60.1467 102.271 60.659 102.671 61.082L102.828 61.231C103.202 61.5546 103.634 61.7159 104.127 61.716C104.691 61.716 105.171 61.5087 105.571 61.0937L105.715 60.931C106.027 60.5405 106.183 60.0783 106.183 59.5422C106.183 59.0062 106.027 58.5474 105.715 58.1632L105.571 58.0025C105.171 57.5795 104.69 57.3685 104.127 57.3685ZM102.795 57.8155C102.742 57.8609 102.692 57.91 102.642 57.9616C102.744 57.8563 102.851 57.7634 102.963 57.684L102.795 57.8155ZM102.733 56.8805C102.567 56.9719 102.407 57.0819 102.256 57.2097L102.49 57.0315C102.573 56.9739 102.659 56.9214 102.747 56.8737L102.733 56.8805ZM103.536 56.5923C103.441 56.6106 103.348 56.6339 103.257 56.6614L103.536 56.5923C103.631 56.574 103.727 56.5605 103.826 56.5514L103.536 56.5923Z" fill="white"/>
<path fill-rule="evenodd" clip-rule="evenodd" d="M113.334 53.6267L113.755 54.288L113.779 54.325L113.745 54.3532C113.634 54.4463 113.472 54.5324 113.262 54.6133L113.261 54.6123C112.799 54.8142 112.191 54.9917 111.436 55.1441L111.437 55.145C110.885 55.2623 110.43 55.5051 110.072 55.8745L109.925 56.041C109.578 56.46 109.376 57.0251 109.322 57.7405C109.44 57.5822 109.578 57.4408 109.735 57.3159C110.192 56.9246 110.717 56.7286 111.307 56.7286C112.074 56.7287 112.737 57.0148 113.291 57.5847L113.486 57.8048C113.911 58.3306 114.124 58.9502 114.124 59.662C114.124 60.3811 113.909 61.006 113.477 61.5329L113.279 61.752C112.724 62.3144 112.045 62.5964 111.246 62.5964C110.435 62.5964 109.762 62.3053 109.23 61.7248L109.126 61.605C108.579 60.9441 108.308 60.014 108.308 58.8215C108.308 57.4226 108.573 56.3487 109.111 55.6076L109.215 55.4723C109.741 54.8131 110.436 54.4104 111.297 54.2656L111.729 54.177C112.143 54.0828 112.505 53.9727 112.815 53.8478C113.039 53.7441 113.187 53.6662 113.263 53.6131L113.306 53.5829L113.334 53.6267ZM111.246 57.609C110.707 57.609 110.25 57.8073 109.874 58.206C109.499 58.5965 109.31 59.0813 109.31 59.662C109.31 60.2424 109.498 60.7311 109.873 61.1297C110.249 61.5205 110.706 61.716 111.246 61.716C111.786 61.7159 112.243 61.5205 112.618 61.1297C112.994 60.7311 113.182 60.2426 113.182 59.662C113.182 59.0814 112.993 58.5975 112.618 58.207L112.617 58.206C112.242 57.8076 111.785 57.6091 111.246 57.609ZM110.56 55.4265C110.511 55.4554 110.463 55.4859 110.417 55.518C110.467 55.4831 110.519 55.45 110.572 55.4187L110.56 55.4265ZM111.191 55.1548C111.115 55.177 111.041 55.2022 110.969 55.2298L111.191 55.1548C111.268 55.1324 111.346 55.1134 111.427 55.0963L111.191 55.1548ZM112.873 54.7126C112.74 54.7597 112.598 54.8059 112.447 54.8499L112.873 54.7126C113.006 54.6655 113.129 54.6176 113.243 54.5675L112.873 54.7126ZM113.291 53.654C113.211 53.71 113.059 53.7906 112.835 53.8945L113.118 53.7562C113.193 53.7164 113.251 53.6819 113.291 53.654Z" fill="white"/>
<path fill-rule="evenodd" clip-rule="evenodd" d="M118.183 56.488C119.014 56.4881 119.721 56.7859 120.3 57.3801L120.507 57.6061C120.956 58.1488 121.181 58.7951 121.181 59.5422C121.181 60.2893 120.956 60.9384 120.507 61.4871L120.3 61.716C119.721 62.3024 119.014 62.5964 118.183 62.5964C117.352 62.5964 116.641 62.3029 116.054 61.717L116.053 61.716C115.474 61.1215 115.185 60.3959 115.185 59.5422C115.185 58.6886 115.474 57.9667 116.053 57.3801L116.279 57.1708C116.82 56.7157 117.455 56.488 118.183 56.488ZM118.183 57.3685C117.69 57.3685 117.257 57.5296 116.883 57.8535L116.727 58.0025C116.327 58.4172 116.127 58.9294 116.127 59.5422C116.127 60.1468 116.327 60.659 116.727 61.082L116.883 61.231C117.257 61.5549 117.69 61.716 118.183 61.716C118.746 61.716 119.227 61.5087 119.627 61.0937L119.771 60.931C120.083 60.5405 120.239 60.0782 120.239 59.5422C120.239 58.9297 120.035 58.4172 119.627 58.0025C119.227 57.5795 118.746 57.3685 118.183 57.3685ZM116.851 57.8155C116.798 57.8608 116.748 57.91 116.698 57.9616C116.8 57.8563 116.907 57.7635 117.018 57.684L116.851 57.8155ZM117.592 56.5923C117.497 56.6106 117.404 56.6339 117.313 56.6614L117.592 56.5923C117.687 56.574 117.783 56.5605 117.882 56.5514L117.592 56.5923Z" fill="white"/>
<path fill-rule="evenodd" clip-rule="evenodd" d="M144.848 56.488C145.68 56.488 146.387 56.7859 146.965 57.3801L147.172 57.6061C147.622 58.1488 147.846 58.795 147.846 59.5422C147.846 60.2894 147.622 60.9384 147.172 61.4871L146.965 61.716C146.386 62.3024 145.68 62.5964 144.848 62.5964C144.017 62.5964 143.306 62.303 142.719 61.717L142.718 61.716C142.14 61.1216 141.85 60.3959 141.85 59.5422C141.85 58.6885 142.14 57.9667 142.719 57.3801L142.945 57.1708C143.485 56.7157 144.121 56.4881 144.848 56.488ZM144.848 57.3685C144.355 57.3685 143.923 57.5299 143.549 57.8535L143.392 58.0025C142.993 58.4172 142.792 58.9294 142.792 59.5422C142.792 60.1468 142.992 60.659 143.392 61.082L143.549 61.231C143.923 61.5546 144.355 61.716 144.848 61.716C145.412 61.716 145.893 61.5087 146.293 61.0937L146.436 60.931C146.748 60.5405 146.904 60.0782 146.904 59.5422C146.904 59.0062 146.748 58.5474 146.436 58.1632L146.293 58.0025C145.893 57.5795 145.412 57.3685 144.848 57.3685ZM143.516 57.8155C143.464 57.8608 143.413 57.91 143.363 57.9616C143.465 57.8563 143.572 57.7635 143.684 57.684L143.516 57.8155ZM144.257 56.5923C144.162 56.6106 144.069 56.6339 143.978 56.6614L144.257 56.5923C144.352 56.574 144.448 56.5605 144.547 56.5514L144.257 56.5923Z" fill="white"/>
<path fill-rule="evenodd" clip-rule="evenodd" d="M157.577 56.488C158.246 56.4881 158.805 56.7051 159.248 57.1396L159.403 57.3071C159.743 57.7107 159.912 58.1961 159.912 58.7612V62.4766H158.97V61.79C158.864 61.9172 158.738 62.0345 158.593 62.1416L158.592 62.1426C158.159 62.4447 157.679 62.5963 157.156 62.5964C156.56 62.5964 156.058 62.4245 155.655 62.0793C155.261 61.7271 155.06 61.3211 155.06 60.8638C155.06 60.3653 155.203 59.9626 155.495 59.661C155.785 59.3604 156.218 59.166 156.786 59.0728L158.968 58.7183C158.96 58.3254 158.829 58.0088 158.576 57.7639L158.575 57.7619C158.321 57.5006 157.99 57.3685 157.577 57.3685C157.172 57.3685 156.785 57.5048 156.415 57.7795C156.241 57.9299 156.099 58.068 155.989 58.1934L155.954 58.2333L155.917 58.1953L155.375 57.6548L155.345 57.6236L155.371 57.5895C155.526 57.3851 155.718 57.2011 155.946 57.0383L156.135 56.9098C156.581 56.6291 157.062 56.488 157.577 56.488ZM157.043 59.8919C156.688 59.955 156.428 60.0697 156.257 60.2308C156.088 60.3904 156.002 60.5996 156.002 60.8638C156.002 61.1038 156.098 61.3063 156.295 61.4735L156.376 61.53C156.573 61.6524 156.832 61.716 157.156 61.716C157.697 61.7159 158.133 61.5434 158.467 61.2018L158.585 61.0683C158.841 60.7455 158.97 60.3382 158.97 59.8432V59.5413L157.043 59.8919ZM156.443 61.6235C156.455 61.6294 156.467 61.6345 156.48 61.64C156.434 61.6196 156.391 61.5972 156.35 61.5718L156.443 61.6235ZM155.972 61.0489C155.974 61.0597 155.978 61.0703 155.98 61.081C155.977 61.0668 155.973 61.0526 155.97 61.0381L155.972 61.0489ZM156.667 59.9376C156.646 59.945 156.626 59.9531 156.606 59.961C156.661 59.9392 156.719 59.9184 156.781 59.9006L156.667 59.9376ZM158.995 58.4583C159.012 58.5542 159.02 58.6552 159.02 58.7612L159.014 58.6053C159.01 58.5547 159.003 58.5064 158.995 58.4583ZM158.612 57.7278C158.68 57.7939 158.739 57.8651 158.79 57.9411L158.707 57.8301C158.677 57.7947 158.645 57.7607 158.612 57.7278ZM156.965 57.424C156.916 57.4414 156.867 57.4616 156.818 57.4834L156.965 57.424C157.015 57.4065 157.065 57.3913 157.116 57.3782L156.965 57.424ZM156.351 56.8416C156.223 56.9092 156.098 56.9881 155.975 57.0782L156.162 56.9516C156.224 56.9123 156.287 56.8753 156.351 56.8416Z" fill="white"/>
<path fill-rule="evenodd" clip-rule="evenodd" d="M2.69745 56.6078C3.24351 56.6079 3.68192 56.7506 4.0062 57.0412C4.33019 57.3316 4.49185 57.7063 4.49186 58.1602C4.49186 58.5254 4.36675 58.8422 4.11737 59.1079L4.1164 59.1088C4.02983 59.1953 3.93041 59.2731 3.82286 59.3484C3.93096 59.3921 4.03108 59.4437 4.12225 59.5052L4.23342 59.588L4.35045 59.699C4.60578 59.9695 4.73274 60.3192 4.73274 60.744C4.73273 61.2098 4.6034 61.5949 4.34265 61.8952L4.2227 62.0179C3.8897 62.3255 3.41906 62.4766 2.81741 62.4766H0V56.6078H2.69745ZM0.942061 61.5952H2.81741C3.15139 61.5952 3.39304 61.5166 3.55077 61.3683C3.70768 61.2206 3.79067 60.9954 3.79067 60.6836C3.79063 60.3719 3.7078 60.1467 3.55077 59.999C3.39304 59.8507 3.15139 59.7721 2.81741 59.7721H0.942061V61.5952ZM0.942061 58.952H2.69745C2.9918 58.952 3.20346 58.8879 3.3411 58.7689C3.47737 58.651 3.54974 58.4712 3.5498 58.2206C3.5498 57.9699 3.47742 57.7903 3.3411 57.6723C3.20347 57.5532 2.99199 57.4893 2.69745 57.4892H0.942061V58.952ZM3.56735 57.9548C3.57446 57.9814 3.58115 58.0089 3.58588 58.0375L3.56735 57.9548C3.56031 57.9283 3.55236 57.9032 3.54297 57.8788L3.56735 57.9548ZM3.24748 57.5496C3.34123 57.5984 3.41645 57.6632 3.47275 57.7444L3.42692 57.686C3.3612 57.6129 3.27654 57.5562 3.17336 57.5155L3.24748 57.5496ZM3.07877 56.6848C3.13353 56.6927 3.18684 56.7024 3.2387 56.714C3.12994 56.6897 3.01496 56.6727 2.89347 56.6643L3.07877 56.6848Z" fill="white"/>
<path d="M13.8462 59.0718H17.0556V56.6078H17.9977V62.4766H17.0556V59.9522H13.8462V62.4766H12.9041V56.6078H13.8462V59.0718Z" fill="white"/>
<path d="M24.1552 57.4892H22.1092V62.4766H21.1671V57.4892H19.1211V56.6078H24.1552V57.4892Z" fill="white"/>
<path d="M26.2207 60.8434L29.6223 56.6273L29.6369 56.6078H30.4327V62.4766H29.4906V58.2401L26.09 62.4581L26.0744 62.4766H25.2786V56.6078H26.2207V60.8434Z" fill="white"/>
<path fill-rule="evenodd" clip-rule="evenodd" d="M43.3407 62.4766H42.3976V60.5531H40.7914L39.588 62.4766H38.5065L38.5553 62.3997L39.8455 60.3496C39.7008 60.3006 39.5629 60.2339 39.433 60.146L39.2877 60.037C38.8734 59.6894 38.6674 59.2018 38.6674 58.581C38.6674 58.0152 38.8657 57.5451 39.2613 57.1747L39.4183 57.0412C39.7975 56.7518 40.2671 56.6078 40.8236 56.6078H43.3407V62.4766ZM39.6075 60.1938C39.6553 60.2195 39.7042 60.2422 39.7538 60.2629C39.7032 60.2417 39.6535 60.218 39.6046 60.1918L39.6075 60.1938ZM40.8236 57.4892C40.4479 57.4892 40.1518 57.5909 39.9303 57.7892C39.7177 57.9867 39.6095 58.2488 39.6095 58.581C39.6095 58.9131 39.7177 59.1752 39.9303 59.3728L40.0171 59.4429C40.2272 59.595 40.495 59.6727 40.8236 59.6727H42.3976V57.4892H40.8236ZM40.0854 59.5471C40.0989 59.5549 40.1134 59.5612 40.1273 59.5685C40.0786 59.543 40.0319 59.5147 39.9879 59.4828L40.0854 59.5471ZM39.5812 58.8264C39.5827 58.835 39.5853 58.8433 39.587 58.8517C39.5844 58.8385 39.5815 58.8253 39.5792 58.8118L39.5812 58.8264ZM38.7259 58.3842C38.72 58.4484 38.7172 58.514 38.7172 58.581L38.7269 58.3784L38.7259 58.3842Z" fill="white"/>
<path d="M53.2391 60.8434L56.6397 56.6273L56.6553 56.6078H57.4511V62.4766H56.5081V58.2421L53.1075 62.4581L53.0928 62.4766H52.2971V56.6078H53.2391V60.8434Z" fill="white"/>
<path d="M67.2355 59.0718H70.4449V56.6078H71.387V62.4766H70.4449V59.9522H67.2355V62.4766H66.2934V56.6078H67.2355V59.0718Z" fill="white"/>
<path d="M74.1751 59.0718H77.3846V56.6078H78.3266V62.4766H77.3846V59.9522H74.1751V62.4766H73.2331V56.6078H74.1751V59.0718Z" fill="white"/>
<path d="M91.1215 57.4892H88.113V62.4766H87.1709V56.6078H91.1215V57.4892Z" fill="white"/>
<path fill-rule="evenodd" clip-rule="evenodd" d="M151.967 56.6078C152.513 56.6079 152.952 56.7506 153.276 57.0412C153.6 57.3316 153.762 57.7063 153.762 58.1602C153.762 58.5254 153.637 58.8422 153.387 59.1079L153.386 59.1088C153.3 59.1953 153.2 59.2731 153.093 59.3484C153.201 59.3921 153.301 59.4437 153.392 59.5052L153.503 59.588L153.62 59.699C153.876 59.9695 154.003 60.3192 154.003 60.744C154.003 61.2098 153.873 61.5949 153.613 61.8952L153.494 62.0179C153.161 62.3255 152.689 62.4766 152.087 62.4766H149.27V56.6078H151.967ZM152.087 61.6449L152.211 61.642C152.22 61.6414 152.229 61.6388 152.238 61.6381C152.19 61.642 152.14 61.6449 152.087 61.6449ZM150.212 61.5952H152.087C152.421 61.5952 152.663 61.5166 152.821 61.3683C152.978 61.2206 153.061 60.9954 153.061 60.6836C153.061 60.3719 152.978 60.1467 152.821 59.999C152.663 59.8507 152.421 59.7721 152.087 59.7721H150.212V61.5952ZM153.365 59.5471C153.402 59.572 153.437 59.5981 153.471 59.626C153.403 59.57 153.329 59.52 153.249 59.476L153.365 59.5471ZM150.212 58.952H151.967C152.262 58.952 152.473 58.8879 152.611 58.7689C152.747 58.651 152.82 58.4712 152.82 58.2206C152.82 57.9699 152.747 57.7903 152.611 57.6723C152.473 57.5532 152.262 57.4893 151.967 57.4892H150.212V58.952ZM152.869 58.2206L152.866 58.1262C152.866 58.1163 152.864 58.1066 152.863 58.0969C152.867 58.1364 152.869 58.1776 152.869 58.2206ZM152.517 57.5496C152.611 57.5984 152.686 57.6632 152.743 57.7444L152.697 57.686C152.631 57.6129 152.546 57.5562 152.443 57.5155L152.517 57.5496ZM152.349 56.6848C152.403 56.6927 152.457 56.7024 152.509 56.714C152.4 56.6897 152.285 56.6727 152.163 56.6643L152.349 56.6848Z" fill="white"/>
<path d="M162.693 59.0718H165.902V56.6078H166.844V62.4766H165.902V59.9522H162.693V62.4766H161.751V56.6078H162.693V59.0718Z" fill="white"/>
<path d="M169.632 60.8434L173.033 56.6273L173.049 56.6078H173.844V62.4766H172.902V58.2401L169.501 62.4581L169.486 62.4766H168.69V56.6078H169.632V60.8434Z" fill="white"/>
<path fill-rule="evenodd" clip-rule="evenodd" d="M180 62.4766H179.058V60.5531H177.451L176.247 62.4766H175.167L175.215 62.3997L176.505 60.3496C176.36 60.3006 176.222 60.2339 176.092 60.146L175.947 60.037C175.533 59.6894 175.328 59.2018 175.328 58.581C175.328 58.0153 175.525 57.5451 175.921 57.1747L176.078 57.0412C176.457 56.7517 176.926 56.6079 177.483 56.6078H180V62.4766ZM177.483 57.4892C177.107 57.4893 176.811 57.591 176.59 57.7892C176.377 57.9867 176.27 58.249 176.27 58.581C176.27 58.913 176.377 59.1753 176.59 59.3728L176.676 59.4429C176.887 59.5951 177.154 59.6727 177.483 59.6727H179.058V57.4892H177.483ZM176.746 59.5471C176.757 59.5538 176.77 59.5592 176.782 59.5656C176.735 59.5407 176.69 59.5137 176.647 59.4828L176.746 59.5471ZM176.241 58.8264C176.242 58.835 176.245 58.8433 176.246 58.8517C176.244 58.8385 176.241 58.8253 176.239 58.8118L176.241 58.8264ZM176.241 58.3356C176.234 58.3744 176.228 58.4144 176.225 58.4553L176.241 58.3356C176.248 58.2966 176.256 58.2584 176.267 58.2216L176.241 58.3356Z" fill="white"/>
<path fill-rule="evenodd" clip-rule="evenodd" d="M79.4433 43.5234C80.2508 43.5235 80.9334 43.8135 81.4883 44.3921L81.6833 44.6161C82.1085 45.1558 82.3211 45.8103 82.3211 46.5776C82.3211 47.3448 82.1085 47.9994 81.6833 48.539L81.4883 48.763C80.9334 49.3416 80.2508 49.6317 79.4433 49.6317C78.8718 49.6317 78.3639 49.4686 77.9219 49.1419L77.7795 49.0328C77.68 48.9502 77.59 48.8594 77.5074 48.762V52.0353H76.5654V43.6432H77.5074V44.3921C77.6277 44.2503 77.7656 44.1238 77.9219 44.0133C78.3639 43.6866 78.8718 43.5234 79.4433 43.5234ZM79.4433 44.4038C79.0009 44.4038 78.6017 44.564 78.2457 44.8878L78.0955 45.0368C77.7034 45.4598 77.5075 45.9726 77.5074 46.5776C77.5074 47.1825 77.7034 47.6953 78.0955 48.1183L78.2457 48.2673C78.6017 48.5912 79.0009 48.7513 79.4433 48.7513C79.9823 48.7512 80.4386 48.5483 80.8144 48.1417L80.9461 47.9849C81.2338 47.6045 81.3781 47.1363 81.3781 46.5776C81.3781 46.0189 81.2339 45.5506 80.9461 45.1703L80.8144 45.0135C80.4386 44.6069 79.9823 44.4039 79.4433 44.4038ZM78.5353 44.6083C78.4531 44.6582 78.3741 44.7167 78.2964 44.7817C78.3789 44.7131 78.4629 44.6517 78.55 44.5996L78.5353 44.6083Z" fill="white"/>
<path fill-rule="evenodd" clip-rule="evenodd" d="M120.816 48.6306H121.719V50.9533H120.776V49.512H116.243V50.9533H115.301V48.6306H115.75C115.931 48.4373 116.093 48.1834 116.232 47.867L116.352 47.5885C116.614 46.9281 116.745 46.1907 116.745 45.3758V43.6432H120.816V48.6306ZM117.687 45.3758C117.687 46.287 117.526 47.1228 117.202 47.8826C117.073 48.169 116.929 48.4188 116.774 48.6306H119.874V44.5246H117.687V45.3758Z" fill="white"/>
<path fill-rule="evenodd" clip-rule="evenodd" d="M10.0565 43.5234C10.8881 43.5234 11.5956 43.821 12.1746 44.4155C12.7619 45.002 13.0552 45.7236 13.0553 46.5776C13.0553 47.3248 12.8299 47.9737 12.3804 48.5225L12.1746 48.7513C11.5956 49.3378 10.888 49.6317 10.0565 49.6317C9.2252 49.6316 8.51441 49.3383 7.92755 48.7523C7.3486 48.1578 7.05863 47.4313 7.05863 46.5776C7.05864 45.7238 7.34838 45.002 7.92755 44.4155L8.1538 44.2061C8.6942 43.7513 9.3291 43.5235 10.0565 43.5234ZM10.0565 44.4038C9.56375 44.4039 9.1312 44.5652 8.75746 44.8888L8.60045 45.0378C8.20092 45.4525 8.0007 45.9648 8.00069 46.5776C8.00069 47.1822 8.20139 47.6943 8.60143 48.1173C9.00949 48.5405 9.49324 48.7512 10.0565 48.7513C10.6202 48.7513 11.1008 48.5441 11.5008 48.129L11.6441 47.9664C11.9565 47.5758 12.1132 47.1137 12.1132 46.5776C12.1132 45.965 11.9092 45.4526 11.5017 45.0378C11.1017 44.6148 10.6198 44.4038 10.0565 44.4038Z" fill="white"/>
<path fill-rule="evenodd" clip-rule="evenodd" d="M16.9951 43.5234C17.5524 43.5234 18.0722 43.6733 18.5535 43.9724L18.7574 44.1097L18.9202 44.2373C19.08 44.3695 19.2328 44.5176 19.3786 44.6814L19.4098 44.7174L18.7339 45.3923L18.6998 45.3456C18.5738 45.1725 18.4275 45.015 18.2619 44.8732C17.8857 44.5605 17.4638 44.4038 16.9951 44.4038C16.5238 44.4038 16.1063 44.565 15.741 44.8888L15.5879 45.0378C15.1962 45.4525 14.9998 45.9644 14.9998 46.5776C14.9998 47.1903 15.1955 47.7064 15.5869 48.129L15.74 48.2751C16.1054 48.5931 16.5234 48.7513 16.9951 48.7513C17.4399 48.7513 17.8748 48.5952 18.301 48.28C18.4819 48.1304 18.635 47.9737 18.7603 47.8096L18.7934 47.7657L18.8334 47.8027L19.4351 48.3433L19.4702 48.3744L19.441 48.4114C19.2773 48.6157 19.0615 48.819 18.7944 49.0211L18.7934 49.0221C18.2244 49.428 17.6245 49.6317 16.9951 49.6317C16.1872 49.6317 15.4926 49.3336 14.914 48.7396C14.3433 48.1452 14.0568 47.4232 14.0568 46.5776C14.0568 45.7321 14.3426 45.0108 14.913 44.4165L14.914 44.4155L15.1364 44.2071C15.668 43.752 16.2881 43.5234 16.9951 43.5234ZM15.7078 44.8508C15.6694 44.8849 15.633 44.9223 15.5957 44.9599C15.6402 44.9151 15.6854 44.8725 15.7313 44.8323L15.7078 44.8508ZM15.1676 44.2451C15.093 44.309 15.0202 44.3775 14.9491 44.4506L15.1676 44.2451C15.2423 44.1811 15.3195 44.1216 15.3977 44.0668L15.1676 44.2451ZM16.4207 43.6276C16.3282 43.6459 16.2376 43.6692 16.1486 43.6967L16.4207 43.6276C16.513 43.6093 16.6068 43.5958 16.7026 43.5867L16.4207 43.6276Z" fill="white"/>
<path fill-rule="evenodd" clip-rule="evenodd" d="M23.0883 43.5234C23.725 43.5234 24.313 43.7194 24.8505 44.1097L25.0134 44.2373C25.1733 44.3696 25.3267 44.5174 25.4727 44.6814L25.5039 44.7174L24.869 45.3514L24.8271 45.3923L24.793 45.3456C24.6984 45.2158 24.5928 45.0945 24.476 44.9823L24.3561 44.8732C23.9796 44.56 23.5574 44.4038 23.0883 44.4038C22.6171 44.4039 22.1995 44.565 21.8342 44.8888L21.6811 45.0378C21.2894 45.4525 21.093 45.9645 21.093 46.5776C21.093 47.1902 21.2888 47.7064 21.6801 48.129C22.0804 48.5444 22.5495 48.7512 23.0883 48.7513C23.532 48.7513 23.966 48.5956 24.3912 48.2819C24.5731 48.1318 24.7287 47.9744 24.8544 47.8096L24.8866 47.7657L24.9266 47.8027L25.5283 48.3433L25.5634 48.3744L25.5341 48.4114C25.3705 48.6157 25.1546 48.8191 24.8876 49.0211L24.8866 49.0221C24.3177 49.4279 23.7176 49.6317 23.0883 49.6317C22.3813 49.6317 21.7612 49.4032 21.2295 48.9481L21.0072 48.7396C20.4364 48.1452 20.1509 47.4232 20.1509 46.5776C20.1509 45.732 20.4365 45.0109 21.0072 44.4165L21.2295 44.2071C21.7612 43.7519 22.3813 43.5235 23.0883 43.5234ZM21.801 44.8508C21.7522 44.8941 21.7055 44.9412 21.6586 44.9901C21.7568 44.8878 21.8584 44.797 21.9648 44.7194L21.801 44.8508ZM22.5139 43.6276C22.4284 43.6446 22.3448 43.6671 22.2623 43.6919C22.4337 43.6404 22.6113 43.6043 22.7957 43.5867L22.5139 43.6276Z" fill="white"/>
<path fill-rule="evenodd" clip-rule="evenodd" d="M43.2968 43.5234C43.9334 43.5235 44.5215 43.7193 45.059 44.1097L45.2209 44.2373C45.3809 44.3696 45.5342 44.5174 45.6802 44.6814L45.7114 44.7174L45.0356 45.3923L45.0005 45.3456C44.9059 45.2157 44.8004 45.0945 44.6835 44.9823L44.5636 44.8732C44.1873 44.5602 43.7656 44.4039 43.2968 44.4038C42.8253 44.4038 42.4071 44.5648 42.0417 44.8888L41.8886 45.0378C41.497 45.4524 41.3005 45.9645 41.3005 46.5776C41.3005 47.1904 41.497 47.7063 41.8886 48.129L42.0417 48.2751C42.407 48.593 42.8251 48.7513 43.2968 48.7513C43.7414 48.7512 44.1765 48.5951 44.6026 48.28C44.7835 48.1304 44.9367 47.9737 45.0619 47.8096L45.0941 47.7657L45.1351 47.8027L45.7368 48.3433L45.7719 48.3744L45.7417 48.4114C45.578 48.6156 45.3621 48.8191 45.0951 49.0211L45.0941 49.0221C44.5253 49.4277 43.9258 49.6317 43.2968 49.6317C42.5895 49.6317 41.9688 49.4034 41.437 48.9481L41.2147 48.7396C40.6439 48.1452 40.3584 47.4232 40.3584 46.5776C40.3585 45.732 40.6441 45.0108 41.2147 44.4165L41.437 44.2071C41.9688 43.7518 42.5895 43.5234 43.2968 43.5234ZM42.1724 44.7194C42.1599 44.7284 42.1486 44.7391 42.1363 44.7486C42.1613 44.7293 42.1868 44.7109 42.2123 44.6931L42.1724 44.7194ZM42.7038 44.4457C42.6416 44.4659 42.5805 44.4898 42.5205 44.5168L42.7038 44.4457C42.7661 44.4254 42.8305 44.4086 42.895 44.395L42.7038 44.4457ZM42.7224 43.6276C42.6365 43.6446 42.5526 43.667 42.4698 43.6919C42.6415 43.6403 42.8194 43.6043 43.0042 43.5867L42.7224 43.6276Z" fill="white"/>
<path fill-rule="evenodd" clip-rule="evenodd" d="M86.3166 43.5234C87.1483 43.5234 87.8558 43.821 88.4348 44.4155C89.022 45.002 89.3144 45.7237 89.3144 46.5776C89.3144 47.3247 89.09 47.9737 88.6405 48.5225L88.4338 48.7513C87.8547 49.3378 87.1481 49.6317 86.3166 49.6317C85.4853 49.6317 84.7746 49.3383 84.1877 48.7523L84.1867 48.7513C83.6079 48.1569 83.3188 47.4312 83.3188 46.5776C83.3188 45.7238 83.6085 45.002 84.1877 44.4155L84.413 44.2061C84.9535 43.751 85.5889 43.5234 86.3166 43.5234ZM86.3166 44.4038C85.8238 44.4038 85.3914 44.5652 85.0176 44.8888L84.8606 45.0378C84.461 45.4525 84.2608 45.9647 84.2608 46.5776C84.2608 47.1821 84.4608 47.6944 84.8606 48.1173L85.0176 48.2663C85.3914 48.5899 85.8238 48.7513 86.3166 48.7513C86.8803 48.7513 87.3609 48.5441 87.7609 48.129L87.9043 47.9664C88.2165 47.5759 88.3724 47.1136 88.3724 46.5776C88.3724 46.0416 88.2163 45.5828 87.9043 45.1985L87.7609 45.0378C87.3609 44.6148 86.88 44.4038 86.3166 44.4038ZM84.9845 44.8508C84.9452 44.8848 84.9083 44.9224 84.8703 44.9599C84.9611 44.8703 85.054 44.789 85.1522 44.7194L84.9845 44.8508ZM85.7256 43.6276C85.6307 43.6459 85.5378 43.6693 85.4467 43.6967L85.7256 43.6276C85.8203 43.6093 85.9168 43.5958 86.0153 43.5867L85.7256 43.6276Z" fill="white"/>
<path fill-rule="evenodd" clip-rule="evenodd" d="M99.2909 43.5234C99.878 43.5234 100.364 43.6905 100.743 44.0279L100.879 44.1545C101.175 44.4552 101.326 44.8024 101.326 45.1956C101.326 45.649 101.169 46.005 100.85 46.2562L100.849 46.2552C100.75 46.3365 100.645 46.401 100.533 46.45C100.635 46.4831 100.733 46.5256 100.828 46.5756L100.966 46.6555L100.967 46.6565L101.108 46.7626C101.414 47.0243 101.567 47.3852 101.567 47.8398C101.567 48.274 101.411 48.6545 101.102 48.9792L100.96 49.1146C100.563 49.4616 100.004 49.6317 99.2909 49.6317C98.695 49.6317 98.1433 49.4604 97.6379 49.1185L97.6369 49.1175C97.425 48.9629 97.2412 48.7874 97.0859 48.5916L97.0577 48.5565L97.6311 47.9849L97.6701 47.9449L97.7052 47.9888C97.7991 48.1059 97.9014 48.2076 98.0124 48.2936L98.1265 48.3744L98.1275 48.3754L98.265 48.4631C98.5867 48.655 98.9284 48.7513 99.2909 48.7513C99.7428 48.7513 100.075 48.6639 100.295 48.4971L100.372 48.4319C100.541 48.2747 100.625 48.0783 100.625 47.8398C100.625 47.6012 100.541 47.4048 100.372 47.2476L100.295 47.1824C100.075 47.0155 99.7429 46.9282 99.2909 46.9282H98.579V46.0468H99.2909C99.6271 46.0467 99.8913 45.9613 100.089 45.7945L100.159 45.7303C100.31 45.5766 100.384 45.3987 100.384 45.1956C100.384 44.9623 100.294 44.7763 100.114 44.6336L100.113 44.6327C99.9331 44.483 99.6617 44.4038 99.2909 44.4038C98.9082 44.4038 98.5652 44.5131 98.2611 44.731L98.2601 44.732C98.1102 44.8345 97.985 44.9406 97.8837 45.0495L97.8476 45.0875L97.8115 45.0505L97.1757 44.4155L97.2088 44.3804C97.3329 44.2482 97.5129 44.1052 97.7471 43.9519L97.7491 43.9509L97.9334 43.8506C98.3665 43.6326 98.8194 43.5234 99.2909 43.5234ZM99.6127 46.8951C99.6796 46.9024 99.7433 46.9129 99.8039 46.9253C99.6977 46.9036 99.5821 46.8888 99.4567 46.8824L99.6127 46.8951ZM100.491 46.4149C100.453 46.4309 100.413 46.4458 100.373 46.4578C100.454 46.4337 100.531 46.4015 100.605 46.3614L100.491 46.4149ZM99.4167 46.0926L99.5367 46.0799C99.5469 46.0785 99.5568 46.0757 99.5669 46.0741C99.5184 46.0819 99.4685 46.0891 99.4167 46.0926ZM100.121 45.8325L100.194 45.7644C100.207 45.7514 100.218 45.7377 100.23 45.7244C100.197 45.7615 100.162 45.7981 100.121 45.8325ZM100.407 45.4021C100.409 45.3929 100.412 45.384 100.414 45.3748L100.416 45.3641C100.414 45.3769 100.41 45.3894 100.407 45.4021Z" fill="white"/>
<path fill-rule="evenodd" clip-rule="evenodd" d="M111.842 43.5234C112.674 43.5234 113.381 43.821 113.96 44.4155C114.547 45.002 114.841 45.7236 114.841 46.5776C114.841 47.3248 114.615 47.9737 114.166 48.5225L113.96 48.7513C113.381 49.3378 112.673 49.6317 111.842 49.6317C111.011 49.6316 110.3 49.3383 109.713 48.7523C109.134 48.1578 108.844 47.4313 108.844 46.5776C108.844 45.7238 109.134 45.002 109.713 44.4155L109.939 44.2061C110.48 43.7513 111.115 43.5235 111.842 43.5234ZM111.842 44.4038C111.349 44.4039 110.917 44.5652 110.543 44.8888L110.386 45.0378C109.986 45.4525 109.786 45.9648 109.786 46.5776C109.786 47.1822 109.987 47.6943 110.387 48.1173C110.795 48.5405 111.279 48.7512 111.842 48.7513C112.406 48.7513 112.886 48.5441 113.286 48.129L113.43 47.9664C113.742 47.5758 113.899 47.1137 113.899 46.5776C113.899 45.965 113.695 45.4526 113.287 45.0378C112.887 44.6148 112.405 44.4038 111.842 44.4038Z" fill="white"/>
<path fill-rule="evenodd" clip-rule="evenodd" d="M137.729 43.5234C138.536 43.5234 139.208 43.8009 139.739 44.3561L139.928 44.5703C140.341 45.0881 140.548 45.7184 140.548 46.4578C140.547 46.5024 140.534 46.6109 140.51 46.7772V46.7801L140.486 46.8999L140.478 46.9399H140.437L135.799 46.9282C135.841 47.4134 136.045 47.837 136.417 48.2001L136.566 48.3287C136.923 48.6105 137.331 48.7513 137.79 48.7513C138.267 48.7513 138.717 48.595 139.142 48.2809L139.288 48.1582C139.424 48.0367 139.533 47.9204 139.615 47.8096L139.649 47.7628L140.262 48.3754L140.236 48.4095C140.081 48.6226 139.872 48.8266 139.612 49.0211L139.611 49.0221C139.042 49.4279 138.435 49.6317 137.79 49.6317C137.083 49.6317 136.463 49.4032 135.931 48.9481L135.708 48.7396C135.138 48.1452 134.852 47.4232 134.852 46.5776C134.852 45.7319 135.138 45.0109 135.708 44.4165L135.927 44.2071C136.449 43.7522 137.05 43.5235 137.729 43.5234ZM137.729 44.4038C137.299 44.4039 136.917 44.5353 136.581 44.7982L136.44 44.92C136.086 45.2513 135.875 45.6467 135.803 46.1072H139.597C139.526 45.6226 139.322 45.2232 138.983 44.9073L138.982 44.9063C138.639 44.5713 138.222 44.4038 137.729 44.4038ZM139.361 45.2891C139.392 45.3397 139.421 45.3915 139.447 45.4449L139.361 45.2891C139.33 45.2386 139.296 45.1887 139.26 45.1411L139.361 45.2891ZM138.166 44.4028C138.142 44.3975 138.119 44.3907 138.095 44.3863L138.072 44.3834C138.104 44.3888 138.135 44.3958 138.166 44.4028ZM137.176 43.6276C137.09 43.6453 137.006 43.6685 136.923 43.6948C137.092 43.6414 137.267 43.6047 137.448 43.5867L137.176 43.6276Z" fill="white"/>
<path fill-rule="evenodd" clip-rule="evenodd" d="M146.879 49.512H145.937V44.5246H143.509V45.3758C143.509 46.2265 143.465 46.9383 143.377 47.5106C143.296 48.0737 143.171 48.5095 142.998 48.8137C142.827 49.1145 142.633 49.3303 142.414 49.4564L142.413 49.4574C142.203 49.5746 141.95 49.6317 141.654 49.6317C141.505 49.6317 141.36 49.6108 141.219 49.5694C141.175 49.5599 141.112 49.5392 141.034 49.5081L141.003 49.4954V48.5273L141.081 48.5789C141.103 48.5934 141.124 48.6054 141.144 48.614L141.206 48.6315L141.216 48.6335C141.314 48.6711 141.42 48.6909 141.534 48.6909C141.773 48.6909 141.951 48.6221 142.076 48.4903L142.077 48.4893L142.125 48.4319C142.173 48.3664 142.22 48.2747 142.264 48.1553C142.323 47.9966 142.376 47.7924 142.424 47.5417L142.486 47.121C142.54 46.6597 142.567 46.0782 142.567 45.3758V43.6432H146.879V49.512ZM141.36 48.726C141.388 48.731 141.417 48.7342 141.446 48.7367C141.387 48.7317 141.331 48.7216 141.277 48.7065L141.36 48.726ZM141.883 48.6773C141.92 48.6623 141.956 48.6464 141.989 48.6257L141.999 48.6189C141.963 48.6424 141.924 48.6608 141.883 48.6773ZM142.112 48.5244L142.165 48.4621C142.172 48.4528 142.177 48.442 142.184 48.4319C142.16 48.4679 142.137 48.4993 142.112 48.5244Z" fill="white"/>
<path fill-rule="evenodd" clip-rule="evenodd" d="M3.53907 41C4.32918 41 4.98838 41.2566 5.51194 41.7713C6.03531 42.2859 6.29699 42.9281 6.29699 43.6938C6.2969 44.4593 6.03515 45.1009 5.51194 45.6153C4.98838 46.13 4.32918 46.3867 3.53907 46.3867H1.30289V49.512H0.300367V41H3.53907ZM1.30289 45.4459H3.53907C4.07381 45.4459 4.49769 45.2852 4.81563 44.9677C5.13341 44.6503 5.29439 44.2276 5.29446 43.6938C5.29446 43.1598 5.13357 42.7365 4.81563 42.419C4.49769 42.1015 4.07381 41.9408 3.53907 41.9408H1.30289V45.4459ZM5.29836 44.1545C5.30334 44.1303 5.30982 44.1062 5.31397 44.0814L5.31689 44.0581C5.3118 44.0908 5.30489 44.1227 5.29836 44.1545ZM5.19109 42.8845C5.24987 43.0207 5.29102 43.1682 5.31592 43.3267L5.31397 43.3052C5.28875 43.1547 5.2474 43.0146 5.19109 42.8845Z" fill="white"/>
<path d="M27.7255 47.8787L31.1261 43.6627L31.1407 43.6432H31.9365V49.512H30.9944V45.2755L27.5938 49.4934L27.5792 49.512H26.7824V43.6432H27.7255V47.8787Z" fill="white"/>
<path d="M34.7236 47.8787L38.1242 43.6627L38.1398 43.6432H38.9356V49.512H37.9926V45.2755L34.592 49.4934L34.5774 49.512H33.7816V43.6432H34.7236V47.8787Z" fill="white"/>
<path d="M47.933 46.6311L50.7348 43.6597L50.7494 43.6432H51.9099L51.8299 43.7279L49.6318 46.04L52.0747 49.4331L52.1323 49.512H51.0459L51.0312 49.4905L49.0203 46.7159L47.933 47.8592V49.512H46.9909V43.6432H47.933V46.6311Z" fill="white"/>
<path d="M54.0261 47.8787L57.4277 43.6627L57.4423 43.6432H58.2381V49.512H57.296V45.2755L53.8955 49.4934L53.8799 49.512H53.0841V43.6432H54.0261V47.8787Z" fill="white"/>
<path d="M61.0243 47.8787L64.4259 43.6627L64.4405 43.6432H65.2363V49.512H64.2942V45.2755L60.8936 49.4934L60.878 49.512H60.0822V43.6432H61.0243V47.8787Z" fill="white"/>
<path d="M74.7193 49.512H73.7772V44.5363H70.5678V49.512H69.6257V43.6432H74.7193V49.512Z" fill="white"/>
<path d="M91.6803 47.8787L95.0809 43.6627L95.0965 43.6432H95.8923V49.512H94.9502V45.2755L91.5486 49.4934L91.534 49.512H90.7382V43.6432H91.6803V47.8787Z" fill="white"/>
<path fill-rule="evenodd" clip-rule="evenodd" d="M105.752 43.6432C106.298 43.6432 106.736 43.786 107.06 44.0766C107.384 44.3669 107.546 44.7416 107.546 45.1956C107.546 45.5607 107.421 45.8776 107.172 46.1432L107.171 46.1442C107.084 46.2305 106.985 46.3086 106.878 46.3838C107.032 46.4459 107.168 46.5253 107.288 46.6233L107.406 46.7344C107.661 47.0048 107.787 47.3547 107.787 47.7794C107.787 48.245 107.658 48.6303 107.398 48.9305L107.278 49.0532C106.945 49.3608 106.473 49.512 105.872 49.512H103.054V43.6432H105.752ZM105.872 48.6802L105.996 48.6773C106.005 48.6767 106.014 48.6742 106.023 48.6734C105.974 48.6774 105.924 48.6802 105.872 48.6802ZM103.996 48.6306H105.872C106.206 48.6306 106.447 48.5519 106.605 48.4036C106.762 48.2559 106.845 48.0308 106.845 47.719C106.845 47.4071 106.762 47.182 106.605 47.0343C106.447 46.8861 106.206 46.8074 105.872 46.8074H103.996V48.6306ZM106.859 47.3927L106.831 47.2983C106.828 47.2892 106.823 47.2808 106.82 47.272C106.835 47.3102 106.848 47.3502 106.859 47.3927ZM106.434 46.8629C106.484 46.8857 106.529 46.9115 106.571 46.9418L106.496 46.8931C106.476 46.882 106.455 46.8726 106.434 46.8629ZM103.996 45.9874H105.752C106.046 45.9874 106.259 45.9235 106.396 45.8043C106.533 45.6863 106.604 45.5065 106.604 45.256C106.604 45.0055 106.532 44.8257 106.396 44.7077C106.259 44.5885 106.046 44.5246 105.752 44.5246H103.996V45.9874ZM106.654 45.256L106.651 45.1615C106.649 45.1309 106.645 45.1014 106.64 45.0729L106.654 45.256ZM106.597 44.9141C106.607 44.9385 106.616 44.9637 106.623 44.9901L106.597 44.9141C106.588 44.8897 106.578 44.8664 106.566 44.844L106.597 44.9141ZM106.302 44.585C106.396 44.6337 106.471 44.6985 106.527 44.7797L106.481 44.7213C106.415 44.6483 106.331 44.5915 106.228 44.5509L106.302 44.585Z" fill="white"/>
<path d="M123.899 47.8787L127.3 43.6627L127.315 43.6432H128.111V49.512H127.169V45.2755L123.768 49.4934L123.752 49.512H122.957V43.6432H123.899V47.8787Z" fill="white"/>
<path d="M134.266 44.5246H132.221V49.512H131.279V44.5246H129.233V43.6432H134.266V44.5246Z" fill="white"/>
<path fill-rule="evenodd" clip-rule="evenodd" d="M149.66 45.5667H151.114C151.78 45.5667 152.307 45.7449 152.688 46.1081L152.825 46.2474C153.122 46.5852 153.269 47.0169 153.269 47.5388C153.269 48.061 153.122 48.496 152.825 48.84L152.688 48.9812C152.307 49.3366 151.784 49.512 151.126 49.512H148.718V43.6432H149.66V45.5667ZM149.66 48.6306H151.126C151.502 48.6306 151.793 48.5292 152.006 48.3316C152.22 48.1256 152.327 47.8626 152.327 47.5388C152.327 47.2069 152.216 46.9448 151.995 46.747C151.781 46.5494 151.49 46.4471 151.114 46.4471H149.66V48.6306ZM152.351 47.8037C152.352 47.7959 152.355 47.7883 152.356 47.7803L152.358 47.7657C152.356 47.7785 152.353 47.7911 152.351 47.8037ZM152.371 47.4132C152.375 47.454 152.377 47.4959 152.377 47.5388L152.371 47.4132C152.367 47.3722 152.363 47.3323 152.355 47.2934L152.371 47.4132Z" fill="white"/>
<path fill-rule="evenodd" clip-rule="evenodd" d="M35.4453 41.0497C35.4453 41.3832 35.5241 41.6245 35.6725 41.782C35.8204 41.9388 36.0459 42.0216 36.3581 42.0216C36.6703 42.0216 36.8958 41.9388 37.0437 41.782C37.1921 41.6245 37.2709 41.3832 37.2709 41.0497V41H38.0326V41.0497C38.0326 41.4804 37.913 41.8451 37.6717 42.1404L37.5605 42.2622C37.253 42.5694 36.8506 42.7219 36.3581 42.7219C35.8657 42.7218 35.4593 42.5698 35.144 42.2632L35.143 42.2622C34.8359 41.9472 34.6837 41.5415 34.6837 41.0497V41H35.4453V41.0497ZM34.7958 41.5532C34.8097 41.6049 34.826 41.6552 34.8446 41.7041L34.7958 41.5532C34.7819 41.5013 34.771 41.4481 34.7617 41.3935L34.7958 41.5532Z" fill="white"/>
<path fill-rule="evenodd" clip-rule="evenodd" d="M61.7469 41.0497C61.7469 41.3832 61.8257 41.6245 61.9742 41.782C62.1221 41.9387 62.3476 42.0216 62.6597 42.0216C62.9719 42.0216 63.1974 41.9389 63.3453 41.782C63.4938 41.6245 63.5726 41.3832 63.5726 41.0497V41H64.3342V41.0497C64.3342 41.4805 64.2138 41.845 63.9724 42.1404L63.8622 42.2622C63.5547 42.5693 63.1521 42.7218 62.6597 42.7219C62.1673 42.7219 61.761 42.5698 61.4456 42.2632L61.4446 42.2622C61.1375 41.9472 60.9853 41.5415 60.9853 41.0497V41H61.7469V41.0497ZM64.0972 41.8609L64.106 41.8473C64.1096 41.8402 64.1112 41.8321 64.1148 41.8249C64.1088 41.8369 64.1035 41.8491 64.0972 41.8609Z" fill="white"/>
</svg>
