<svg width="26" height="26" viewBox="0 0 26 26" fill="none" xmlns="http://www.w3.org/2000/svg">
<path d="M12.7266 12.8819C14.5086 12.8819 16.1188 12.1519 17.2782 10.9926C18.4376 9.8332 19.1676 8.22296 19.1676 6.44096C19.1676 4.65896 18.4376 3.04872 17.2782 1.88935C16.1188 0.729975 14.5086 0 12.7266 0C10.9446 0 9.33437 0.729975 8.17499 1.88935C7.01562 3.04872 6.28564 4.65896 6.28564 6.44096C6.28564 8.22296 7.01562 9.8332 8.17499 10.9926C9.33437 12.1519 10.9661 12.8819 12.7266 12.8819ZM10.6655 4.35838C11.2022 3.82164 11.9322 3.49959 12.7266 3.49959C13.5424 3.49959 14.2724 3.82164 14.7877 4.35838C15.3245 4.89513 15.6465 5.6251 15.6465 6.41949C15.6465 7.23534 15.3245 7.96532 14.7877 8.4806C14.251 9.01734 13.521 9.33939 12.7266 9.33939C11.9107 9.33939 11.1808 9.01734 10.6655 8.4806C10.1287 7.94385 9.80668 7.21387 9.80668 6.41949C9.80668 5.6251 10.1502 4.89513 10.6655 4.35838Z" fill="#024DC4"/>
<path d="M21.4006 15.4793L19.5113 12.9029C19.4039 12.7526 19.1892 12.7312 19.0604 12.86C17.2784 14.3843 15.0885 15.372 12.7268 15.372C10.3651 15.372 8.17521 14.3843 6.39321 12.86C6.26439 12.7526 6.04969 12.7741 5.94234 12.9029L4.05299 15.4793C3.96711 15.6081 3.98858 15.7799 4.09593 15.8872C5.6847 17.1754 7.53111 18.0557 9.4634 18.5066L5.47 25.5487C5.36265 25.7419 5.51294 25.9995 5.72764 25.9995H9.63516C9.76398 25.9995 9.87133 25.9351 9.91427 25.8063L12.7053 19.58L15.4964 25.8063C15.5394 25.9137 15.6467 25.9995 15.7755 25.9995H19.6831C19.9192 25.9995 20.048 25.7634 19.9407 25.5487L15.9473 18.5066C17.8796 18.0557 19.726 17.1969 21.3148 15.8872C21.4865 15.7799 21.508 15.6081 21.4006 15.4793Z" fill="#024DC4"/>
</svg>
