<svg width="46" height="46" viewBox="0 0 46 46" fill="none" xmlns="http://www.w3.org/2000/svg">
<rect width="46" height="46" rx="23" fill="white"/>
<path d="M23.6984 25.3813H14.0794V21.5274H23.6984C24.2603 21.5274 24.651 21.6266 24.847 21.7997C25.0431 21.9729 25.1645 22.294 25.1645 22.7632V24.147C25.1645 24.6413 25.0431 24.9624 24.847 25.1356C24.651 25.3088 24.2603 25.3828 23.6984 25.3828V25.3813ZM24.3583 17.8941H10V34.3751H14.0794V29.0131H21.5972L25.1645 34.3751H29.7326L25.7996 28.988C27.2496 28.7704 27.9007 28.3205 28.4377 27.579C28.9747 26.8376 29.2439 25.6521 29.2439 24.07V22.8342C29.2439 21.8959 29.1459 21.1544 28.9747 20.5861C28.8035 20.0178 28.5108 19.5235 28.0953 19.0795C27.6563 18.6592 27.1676 18.3632 26.5809 18.1649C25.9942 17.9917 25.2611 17.8926 24.3583 17.8926V17.8941Z" fill="#024DC4"/>
<path d="M32.8659 17.893C34.5968 17.893 35.9999 16.4899 35.9999 14.759C35.9999 13.0281 34.5968 11.625 32.8659 11.625C31.1351 11.625 29.7319 13.0281 29.7319 14.759C29.7319 16.4899 31.1351 17.893 32.8659 17.893Z" fill="#024DC4"/>
</svg>
