<svg width="26" height="26" viewBox="0 0 26 26" fill="none" xmlns="http://www.w3.org/2000/svg">
<path d="M13.6984 15.3813H4.07938V11.5274H13.6984C14.2603 11.5274 14.651 11.6266 14.847 11.7997C15.0431 11.9729 15.1645 12.294 15.1645 12.7632V14.147C15.1645 14.6413 15.0431 14.9624 14.847 15.1356C14.651 15.3088 14.2603 15.3828 13.6984 15.3828V15.3813ZM14.3583 7.89406H0V24.3751H4.07938V19.0131H11.5972L15.1645 24.3751H19.7326L15.7996 18.988C17.2496 18.7704 17.9007 18.3205 18.4377 17.579C18.9747 16.8376 19.2439 15.6521 19.2439 14.07V12.8342C19.2439 11.8959 19.1459 11.1544 18.9747 10.5861C18.8035 10.0178 18.5108 9.52351 18.0953 9.07953C17.6563 8.6592 17.1676 8.36321 16.5809 8.16489C15.9942 7.99173 15.2611 7.89258 14.3583 7.89258V7.89406Z" fill="#024DC4"/>
<path d="M22.8659 7.893C24.5968 7.893 25.9999 6.48985 25.9999 4.759C25.9999 3.02814 24.5968 1.625 22.8659 1.625C21.1351 1.625 19.7319 3.02814 19.7319 4.759C19.7319 6.48985 21.1351 7.893 22.8659 7.893Z" fill="#024DC4"/>
</svg>
