<svg width="26" height="26" viewBox="0 0 26 26" fill="none" xmlns="http://www.w3.org/2000/svg">
<path fill-rule="evenodd" clip-rule="evenodd" d="M1.71862 11.6099C8.42949 8.78741 12.9045 6.92667 15.1435 6.02765C21.5365 3.46077 22.8649 3.01488 23.7307 3.00016C23.9212 2.99692 24.347 3.04248 24.6228 3.25852C24.8557 3.44094 24.9197 3.68737 24.9504 3.86033C24.9811 4.03328 25.0192 4.42728 24.9889 4.73514C24.6424 8.249 23.1434 16.7762 22.3808 20.7118C22.0581 22.3771 21.4227 22.9354 20.8076 22.9901C19.4707 23.1088 18.4556 22.1372 17.1608 21.3179C15.1348 20.0358 13.9901 19.2377 12.0235 17.9867C9.75066 16.5408 11.224 15.7462 12.5193 14.4475C12.8583 14.1076 18.7484 8.93584 18.8624 8.46668C18.8767 8.40801 18.8899 8.18929 18.7553 8.0738C18.6207 7.95831 18.422 7.9978 18.2787 8.02921C18.0754 8.07373 14.8388 10.1389 8.56858 14.2247C7.64986 14.8337 6.8177 15.1304 6.07212 15.1149C5.25018 15.0977 3.6691 14.6663 2.49372 14.2974C1.05207 13.8451 -0.0937162 13.6059 0.00605648 12.8376C0.0580243 12.4374 0.628878 12.0282 1.71862 11.6099Z" fill="#024DC4"/>
</svg>
