<svg width="26" height="26" viewBox="0 0 26 26" fill="none" xmlns="http://www.w3.org/2000/svg">
<path d="M20.8621 12.0646C22.789 12.0646 24.2396 11.2708 25.3092 9.88892L23.8797 8.81043C23.5266 9.27059 23.0702 9.64338 22.5466 9.89941C22.0229 10.1554 21.4463 10.2877 20.8621 10.2858C18.7709 10.2858 17.2555 8.60119 17.2555 6.53408C17.2555 4.46698 18.7461 2.68749 20.9217 2.68749C21.8888 2.68749 22.5723 2.91325 23.1686 3.27849V5.0961H24.9675V2.44591L24.6228 2.17771C23.6339 1.40839 22.1237 1 20.8614 1C17.7754 1 15.2654 3.48198 15.2654 6.53338C15.2654 9.58191 17.7747 12.0646 20.8621 12.0646ZM24.5945 22.9789L24.5305 20.4315V14.2151H20.7785V15.9946H22.6356V20.2122C22.6356 22.0291 21.2322 23.3154 19.8165 23.3154C18.4008 23.3154 17.662 22.3448 17.662 20.5286V14.2144H14.1572V15.9939H15.7671V20.837C15.7671 23.3017 17.1646 25 19.6572 25C21.0897 25 22.1804 24.2141 22.8312 23.0026H22.8603L23.1169 24.6966H26V22.9811H24.5966V22.9775L24.5945 22.9789ZM14.8509 1.261H11.7242L9.00478 9.06926H8.96261L6.25768 1.261H2.92597V3.04121H4.79979L8.02461 11.9409H9.73773V11.9388L13.1007 3.04194H14.8495V1.26172L14.8509 1.261ZM0 24.7196H1.85273V22.8883H0.000727132V24.7196H0ZM7.15496 16.2786H7.1346L7.01826 14.2151H3.71127V15.8372H5.47093V22.9796H3.71127V24.6959H11.8842V23.0134H7.33384V18.7031C7.53962 17.1428 8.72266 15.8105 10.3369 15.8105H10.366L10.3333 17.4053H12.1322V14.1856H10.7099C9.08113 14.1813 7.87264 15.0527 7.15424 16.2793L7.15496 16.2786Z" fill="#024DC4"/>
</svg>
