<svg width="26" height="26" viewBox="0 0 26 26" fill="none" xmlns="http://www.w3.org/2000/svg">
<path fill-rule="evenodd" clip-rule="evenodd" d="M23.3618 4.60797C24.4821 4.91392 25.1359 5.88668 25.4341 7.03595C25.9771 9.11875 26 13.4138 26 13.4138C26 13.4138 25.9771 17.7088 25.4341 19.7916C25.1359 20.9409 24.4821 21.9137 23.3618 22.2196C21.3315 22.7766 13 22.8276 13 22.8276C13 22.8276 4.66853 22.7766 2.63824 22.2196C1.51794 21.9137 0.864118 20.9409 0.565882 19.7916C0.0229412 17.7088 0 13.4138 0 13.4138C0 13.4138 0.0229412 9.11875 0.565882 7.03595C0.867941 5.88668 1.51794 4.91392 2.63824 4.60797C4.66853 4.05099 13 4 13 4C13 4 21.3315 4.05099 23.3618 4.60797ZM10.3236 9.49138L17.206 13.4138L10.3236 17.3362V9.49138Z" fill="#024DC4"/>
</svg>
